<svg viewBox="0 0 527 102" fill="none" xmlns="http://www.w3.org/2000/svg">
<path d="M57.0463 62.609L45.3433 25.385H45.2023L33.2173 62.609H57.0463ZM89.8993 98H68.6083L62.6863 78.683H28.1413L21.5143 98H0.787258L34.2043 4.376H56.9053L89.8993 98ZM138.485 20.591H113.246V45.548H137.78C148.214 45.548 152.162 40.331 152.162 33.14C152.162 25.808 148.214 20.591 138.485 20.591ZM167.954 98H148.778V73.889C148.778 64.865 145.394 61.34 134.114 61.34H113.246V98H94.2108V4.376H141.728C159.071 4.376 170.492 15.938 170.492 31.448C170.492 41.459 165.557 49.919 156.533 53.162C164.852 55.841 167.954 60.494 167.954 71.492V98ZM238.612 65.852H258.211C254.263 87.143 239.599 101.243 217.885 101.243C193.351 101.243 174.598 84.464 174.598 52.316C174.598 20.591 191.377 1.27399 218.167 1.27399C241.573 1.27399 256.378 16.22 258.211 35.114H238.612C235.933 24.539 227.614 18.194 218.308 18.194C202.093 18.194 194.479 30.743 194.479 51.188C194.479 71.915 202.093 84.182 217.321 84.182C228.883 84.182 235.933 77.555 238.612 65.852ZM338.057 98H318.317V55.982H281.798V98H262.199V4.376H281.798V39.626H318.317V4.376H338.057V98ZM364.553 98H344.954V4.376H364.553V98ZM418.63 98H400.159L368.434 4.376H389.302L409.747 70.082L430.051 4.376H450.355L418.63 98ZM525.899 98H454.835V4.376H523.643V20.732H473.87V40.754H519.695V57.251H473.87V81.362H525.899V98Z" fill="white"/>
</svg>
