<svg  viewBox="0 0 652 206" fill="none" xmlns="http://www.w3.org/2000/svg">
<path d="M208.009 102H184.18L156.403 59.841L145.969 70.134V102H126.652V8.376H145.969V46.446L181.783 8.376H207.163L170.221 45.318L208.009 102ZM243.757 88.464C257.857 88.464 269.137 78.594 269.137 56.457C269.137 34.32 260.113 22.617 243.757 22.617C227.26 22.617 218.095 34.32 218.095 56.457C218.095 78.594 227.542 88.464 243.757 88.464ZM243.757 105.243C214.993 105.243 198.778 87.618 198.778 56.034C198.778 24.309 214.993 5.27399 243.757 5.27399C272.521 5.27399 288.454 24.309 288.454 56.457C288.454 88.605 272.521 105.243 243.757 105.243ZM375.655 102H356.761L342.238 41.088L327.433 102H309.103L282.595 8.376H303.463L318.832 69.006L331.804 8.376H352.39L366.631 69.006L381.859 8.376H401.881L375.655 102ZM425.772 102H406.173V8.376H425.772V102ZM524.012 36.012H505.4C504.413 26.424 498.632 21.771 486.788 21.771C475.79 21.771 470.009 25.719 470.009 32.769C470.009 38.691 474.098 42.075 484.532 44.613C495.107 47.151 505.4 49.689 512.309 52.791C520.487 56.457 526.973 62.238 526.973 75.492C526.973 96.078 511.463 105.243 489.608 105.243C466.484 105.243 450.41 94.95 449.987 73.941H468.881C469.163 83.529 477.2 89.451 489.749 89.451C501.311 89.451 507.938 84.516 507.938 76.197C507.938 70.698 505.118 66.891 493.415 64.353C481.853 61.815 474.38 60.123 467.753 57.162C457.742 52.65 452.102 45.882 452.102 34.038C452.102 17.259 463.523 5.27399 486.365 5.27399C510.053 5.27399 523.307 18.105 524.012 36.012ZM22.3532 186.067H38.5682C55.6292 186.067 62.9612 175.351 62.9612 154.201C62.9612 133.051 55.6292 124.591 36.8762 124.591H22.3532V186.067ZM42.5162 202H3.3182V108.376H39.5552C64.9352 108.376 82.9832 125.719 82.9832 154.201C82.9832 182.683 66.7682 202 42.5162 202ZM108.564 202H88.9647V108.376H108.564V202ZM206.068 202H187.738V137.845L170.254 202H150.796L133.453 138.127V202H115.264V108.376H144.028L160.948 177.043L177.868 108.376H206.068V202ZM284.368 202H213.304V108.376H282.112V124.732H232.339V144.754H278.164V161.251H232.339V185.362H284.368V202ZM364.628 202H346.58L306.536 139.114V202H288.347V108.376H309.074L346.298 168.583V108.376H364.628V202ZM443.281 136.012H424.669C423.682 126.424 417.901 121.771 406.057 121.771C395.059 121.771 389.278 125.719 389.278 132.769C389.278 138.691 393.367 142.075 403.801 144.613C414.376 147.151 424.669 149.689 431.578 152.791C439.756 156.457 446.242 162.238 446.242 175.492C446.242 196.078 430.732 205.243 408.877 205.243C385.753 205.243 369.679 194.95 369.256 173.941H388.15C388.432 183.529 396.469 189.451 409.018 189.451C420.58 189.451 427.207 184.516 427.207 176.197C427.207 170.698 424.387 166.891 412.684 164.353C401.122 161.815 393.649 160.123 387.022 157.162C377.011 152.65 371.371 145.882 371.371 134.038C371.371 117.259 382.792 105.274 405.634 105.274C429.322 105.274 442.576 118.105 443.281 136.012ZM470.702 202H451.103V108.376H470.702V202ZM521.254 188.464C535.354 188.464 546.634 178.594 546.634 156.457C546.634 134.32 537.61 122.617 521.254 122.617C504.757 122.617 495.592 134.32 495.592 156.457C495.592 178.594 505.039 188.464 521.254 188.464ZM521.254 205.243C492.49 205.243 476.275 187.618 476.275 156.034C476.275 124.309 492.49 105.274 521.254 105.274C550.018 105.274 565.951 124.309 565.951 156.457C565.951 188.605 550.018 205.243 521.254 205.243ZM648.143 202H630.095L590.051 139.114V202H571.862V108.376H592.589L629.813 168.583V108.376H648.143V202Z" fill="white"/>
<path d="M432.125 40.1079V9.10791L444.75 9.10791V40.1079L432.125 40.1079Z" fill="white"/>
</svg>
